HIERARCHY
ROOT Hips
{
	OFFSET 0.000000 0.000000 0.000000
	CHANNELS 6 Xposition Yposition Zposition Yrotation Xrotation Zrotation
	JOINT Chest
	{
		OFFSET 0.000000 -0.009281 11.569106
		CHANNELS 3 Yrotation Xrotation Zrotation
		JOINT Chest2
		{
			OFFSET -0.000000 0.016865 9.269641
			CHANNELS 3 Yrotation Xrotation Zrotation
			JOINT Chest3
			{
				OFFSET -0.000000 0.000001 8.374491
				CHANNELS 3 Yrotation Xrotation Zrotation
				JOINT Chest4
				{
					OFFSET -0.000000 0.000001 8.374493
					CHANNELS 3 Yrotation Xrotation Zrotation
					JOINT Neck
					{
						OFFSET -0.000000 0.000002 12.152554
						CHANNELS 3 Yrotation Xrotation Zrotation
						JOINT Head
						{
							OFFSET -0.000000 0.040101 7.802319
							CHANNELS 3 Yrotation Xrotation Zrotation
							End Site
							{
								OFFSET -0.000000 0.020947 14.853096
							}
						}
					}
					JOINT RightCollar
					{
						OFFSET 2.894404 0.000001 6.791374
						CHANNELS 3 Yrotation Xrotation Zrotation
						JOINT RightShoulder
						{
							OFFSET 13.574684 0.000001 0.000000
							CHANNELS 3 Yrotation Xrotation Zrotation
							JOINT RightElbow
							{
								OFFSET 23.923903 0.000002 0.000000
								CHANNELS 3 Yrotation Xrotation Zrotation
								JOINT RightWrist
								{
									OFFSET 19.846718 0.012767 0.000000
									CHANNELS 3 Yrotation Xrotation Zrotation
									End Site
									{
										OFFSET 14.973145 0.000001 0.000000
									}
								}
							}
						}
					}
					JOINT LeftCollar
					{
						OFFSET -2.894404 0.000001 6.791374
						CHANNELS 3 Yrotation Xrotation Zrotation
						JOINT LeftShoulder
						{
							OFFSET -13.574684 -0.000001 0.000000
							CHANNELS 3 Yrotation Xrotation Zrotation
							JOINT LeftElbow
							{
								OFFSET -23.923903 -0.000002 0.000000
								CHANNELS 3 Yrotation Xrotation Zrotation
								JOINT LeftWrist
								{
									OFFSET -19.846718 0.012763 0.000000
									CHANNELS 3 Yrotation Xrotation Zrotation
									End Site
									{
										OFFSET -14.973145 -0.000001 0.000000
									}
								}
							}
						}
					}
				}
			}
		}
	}
	JOINT RightHip
	{
		OFFSET 9.469263 0.004643 0.045487
		CHANNELS 3 Yrotation Xrotation Zrotation
		JOINT RightKnee
		{
			OFFSET 0.000000 0.002661 -40.478676
			CHANNELS 3 Yrotation Xrotation Zrotation
			JOINT RightAnkle
			{
				OFFSET 0.000000 0.049106 -35.224068
				CHANNELS 3 Yrotation Xrotation Zrotation
				JOINT RightToe
				{
					OFFSET -0.000001 12.539529 -6.151390
					CHANNELS 3 Yrotation Xrotation Zrotation
					End Site
					{
						OFFSET -0.000001 5.044994 -1.291870
					}
				}
			}
		}
	}
	JOINT LeftHip
	{
		OFFSET -9.469263 0.004641 0.045487
		CHANNELS 3 Yrotation Xrotation Zrotation
		JOINT LeftKnee
		{
			OFFSET 0.000000 0.002661 -40.478676
			CHANNELS 3 Yrotation Xrotation Zrotation
			JOINT LeftAnkle
			{
				OFFSET 0.000000 0.049106 -35.224068
				CHANNELS 3 Yrotation Xrotation Zrotation
				JOINT LeftToe
				{
					OFFSET -0.000001 12.539529 -6.151390
					CHANNELS 3 Yrotation Xrotation Zrotation
					End Site
					{
						OFFSET -0.000001 5.044994 -1.291870
					}
				}
			}
		}
	}
}
MOTION
Frames: 11
Frame Time: 0.016667
-53.908485 190.659241 79.967827 7.112616 -6.604692 101.920390 -1.936587 -1.767785 1.528515 -0.701316 -0.716500 0.845187 -0.701316 -0.716500 0.845188 -0.524990 -0.538347 0.633060 -5.681549 -17.987489 3.076506 -9.430576 2.801672 3.764297 10.422403 -3.405760 -1.749052 77.191724 -4.794948 25.708742 3.547488 -30.367567 37.615484 -37.412146 25.003974 44.678675 -6.140000 -1.743636 4.672949 -64.210813 27.529484 18.581555 17.273431 20.413460 17.733107 14.596749 3.522449 -6.044699 -12.286486 8.045077 -3.699653 -11.069397 -65.878971 16.160641 21.062119 -20.231172 4.455954 -21.790230 43.756886 -12.124042 -17.515310 0.852594 -0.495442 -5.271578 -4.973703 7.074333 9.219407 -5.351920 3.271005 -0.536032 -0.237731 -0.669684 
-55.378975 189.758362 79.915535 6.650392 -6.809781 102.721216 -1.905949 -1.750161 1.355708 -0.791195 -0.704290 0.755387 -0.791195 -0.704291 0.755386 -0.592519 -0.529198 0.565622 -5.990772 -17.832606 3.483464 -9.864593 3.103807 4.401716 10.427033 -3.149075 -1.694521 77.395824 -3.887080 23.971464 4.637301 -31.869932 36.293846 -38.160554 26.292496 44.680475 -6.346191 -1.922562 4.531713 -64.340805 27.732583 16.428162 16.548416 20.029349 16.996507 14.470299 3.833075 -7.061915 -11.020247 12.112621 -1.972857 -12.839069 -67.897777 18.769894 20.713071 -17.891250 2.414968 -17.771662 34.926090 -9.426727 -18.515827 -0.058609 -1.865933 -5.131967 -4.996127 8.097762 10.025029 -4.186029 3.306614 -0.822359 -0.261694 -0.810421 
-56.786072 188.824677 79.843544 6.031962 -6.925988 103.694983 -1.921871 -1.494499 1.211046 -0.854384 -0.631022 0.642642 -0.854384 -0.631022 0.642642 -0.640119 -0.474166 0.481097 -6.257054 -17.840589 3.847426 -10.232194 3.103152 4.982741 10.490529 -2.800942 -1.739264 77.452139 -3.022332 21.690224 5.752504 -32.929623 34.345104 -38.314090 27.106685 44.149663 -6.613669 -2.506548 4.165249 -64.822682 28.153582 13.786993 15.592606 19.642806 16.035886 15.030589 3.894666 -8.644295 -9.871104 16.265756 0.354344 -12.039071 -68.860348 18.077880 19.257684 -15.551060 0.862140 -13.891922 28.739223 -7.026736 -19.405892 -0.948602 -2.924784 -4.840670 -4.837027 8.154205 10.652604 -3.215309 3.634838 -1.030809 -0.316542 -0.839600 
-58.136196 188.014877 79.773613 5.325356 -6.918171 104.921193 -1.952904 -1.062471 1.026524 -0.887409 -0.529519 0.528752 -0.887409 -0.529518 0.528751 -0.665094 -0.397908 0.395792 -6.470210 -17.966958 4.139689 -10.525729 2.880694 5.455787 10.602872 -2.446064 -1.795110 77.431526 -2.013056 18.959651 6.779043 -33.517524 31.911955 -37.861388 27.286737 43.137361 -7.110250 -2.743437 3.573411 -65.027895 28.463982 11.378519 14.348978 19.102752 14.885581 15.992417 4.034952 -10.765982 -8.832845 20.296628 3.007676 -9.100847 -68.522712 13.869967 16.980463 -13.816080 0.270764 -10.092641 25.641898 -4.761378 -19.957784 -1.657464 -3.630736 -4.713049 -4.924744 7.539678 11.034609 -2.224538 3.716006 -0.982431 -0.343365 -0.568124 
-59.455204 187.236908 79.733505 4.763116 -7.210785 106.351325 -2.341985 -0.796136 0.829081 -0.899678 -0.421025 0.425228 -0.899679 -0.421025 0.425231 -0.674463 -0.316395 0.318301 -6.609306 -18.165431 4.355252 -10.709124 2.521966 5.816237 10.694878 -2.179697 -1.869521 77.340240 -0.958230 15.952385 7.734208 -33.374364 29.029831 -36.727990 26.854639 41.801670 -7.698011 -2.535967 3.024987 -65.065796 28.416186 9.238220 12.830171 18.347372 13.496125 16.935266 4.364738 -13.188481 -8.149673 23.837094 5.690009 -6.098211 -67.125023 8.363405 14.276357 -12.583723 0.292487 -6.080154 24.883040 -2.375478 -20.605767 -2.529962 -3.937128 -4.609865 -5.162353 6.926686 11.229493 -1.463853 3.216826 -0.804558 -0.042111 -0.159284 
-60.747971 186.645844 79.701202 4.355959 -6.979475 108.042589 -2.310450 -0.515591 0.552115 -0.895459 -0.329201 0.337766 -0.895459 -0.329200 0.337764 -0.671411 -0.247396 0.252840 -6.649950 -18.390003 4.488738 -10.739582 2.111950 6.059670 10.836784 -1.953654 -1.923489 77.030573 0.040070 12.835911 8.523466 -32.361173 25.709023 -34.816001 25.942121 40.187689 -8.025270 -2.447620 2.838545 -65.743699 27.896426 6.618389 11.116708 17.588864 11.750686 17.541613 4.713724 -15.571491 -7.104858 26.580151 7.856354 -4.591794 -63.805797 3.876119 12.161107 -12.059317 0.907658 -2.692710 24.817730 -0.824706 -20.687229 -3.420808 -4.232575 -4.349151 -5.510735 6.638163 11.461758 -0.265123 2.446809 -0.753892 -0.072759 -0.002735 
-62.029732 186.106537 79.683220 4.224670 -6.693345 109.879200 -2.261678 -0.394877 0.293538 -0.875074 -0.262718 0.260035 -0.875074 -0.262717 0.260035 -0.656192 -0.197411 0.194648 -6.589399 -18.633622 4.557348 -10.606462 1.664234 6.217704 11.018730 -1.793419 -1.820355 76.591289 0.992241 9.731026 8.876020 -30.502908 21.989688 -32.056653 24.602027 38.111533 -8.014615 -2.978981 2.789034 -67.321370 27.249132 3.237290 9.209010 17.059704 9.542680 17.701600 4.874534 -17.612218 -6.116137 28.308708 9.723656 -3.956356 -59.039998 0.664094 10.545518 -11.792099 1.126891 0.187188 23.887190 0.188407 -20.737414 -4.553573 -4.754211 -3.771339 -5.886321 6.667164 11.595992 0.959552 1.725183 -0.798330 -0.108933 0.047503 
-63.311378 185.594986 79.674026 4.389017 -6.409172 111.798647 -2.205723 -0.402114 0.102264 -0.850060 -0.220114 0.195215 -0.850060 -0.220114 0.195215 -0.637475 -0.165357 0.146105 -6.431162 -18.917426 4.572386 -10.312803 1.139860 6.310313 11.197280 -1.633522 -1.790325 76.190255 1.699453 6.673959 8.686665 -27.898731 17.916201 -28.532825 22.640706 35.147426 -8.035787 -3.905266 2.445682 -69.015462 26.702486 -0.323729 6.971612 16.876368 6.844541 17.375311 4.763195 -19.124052 -5.175429 29.101312 11.462243 -3.154150 -53.261750 -1.852956 8.955952 -11.668106 0.520158 2.589938 20.920092 0.865377 -20.717560 -5.936284 -5.555407 -3.070588 -6.316149 6.492759 11.767790 2.094203 1.629102 -0.939156 -0.123216 0.001456 
-64.657181 185.074661 79.673149 4.909800 -6.236376 113.679408 -2.170732 -0.658730 0.082060 -0.821911 -0.196985 0.154287 -0.821911 -0.196985 0.154288 -0.616382 -0.147946 0.115449 -6.177673 -19.239378 4.526673 -9.865721 0.542025 6.322576 11.298816 -1.543927 -1.886983 75.865896 2.237178 3.797049 7.963606 -24.770547 13.504492 -24.417132 20.040880 31.198614 -8.160653 -5.060721 1.806810 -70.675280 26.114354 -3.943531 4.485315 16.986530 3.742290 16.402027 4.358636 -19.949808 -4.320298 28.914103 13.240259 -1.944086 -46.642225 -3.779425 7.396758 -11.712519 -0.764316 4.209140 15.358398 1.162790 -20.571370 -7.682776 -6.270211 -2.406205 -6.817433 6.137342 11.983408 3.286145 1.725330 -1.102975 -0.141956 -0.070839 
-66.062744 184.556412 79.676208 5.424171 -6.176297 115.898789 -2.261300 -0.873429 -0.121470 -0.789864 -0.186545 0.140967 -0.789864 -0.186545 0.140972 -0.592355 -0.140091 0.105485 -5.795354 -19.607301 4.399892 -9.210574 -0.144710 6.227153 11.335390 -1.694568 -1.998795 75.621239 2.760593 1.297645 6.638945 -21.580970 8.632668 -20.037149 17.250409 26.693479 -8.310392 -6.198752 1.241920 -72.233321 25.016365 -7.444430 1.897522 17.127649 0.321220 14.620238 3.614238 -19.956932 -3.913912 28.017515 14.605760 -0.642176 -39.465031 -4.955177 6.092970 -11.875256 -2.124961 4.915663 7.162959 1.123178 -20.280428 -9.591268 -7.046155 -1.806207 -7.198806 5.775672 12.112388 4.319846 1.474680 -1.188586 -0.044692 -0.064061 
-67.532059 184.101578 79.686905 5.827114 -6.030995 118.011708 -2.348077 -0.871092 -0.083107 -0.748232 -0.180059 0.154907 -0.748232 -0.180059 0.154910 -0.561128 -0.135233 0.115962 -5.261363 -20.024235 4.176758 -8.310685 -0.926579 6.001676 11.327998 -1.780979 -2.153233 75.500706 3.049237 -1.059797 4.425962 -19.255652 3.341392 -15.715097 14.732530 21.995613 -8.463146 -6.519206 0.882554 -73.444362 23.047066 -9.957694 -0.506325 17.056482 -3.290687 12.206536 2.562956 -19.327989 -3.754285 26.706605 15.674757 0.218945 -31.958086 -4.723227 5.782631 -11.931745 -3.021523 3.058405 0.825406 0.527384 -19.681388 -11.309290 -7.401964 -1.353196 -7.633691 5.438404 12.129238 5.507299 0.825869 -1.198362 0.051063 -0.040264 
